<svg width="48" height="44" viewBox="0 0 48 44" fill="none" xmlns="http://www.w3.org/2000/svg">
<path d="M39.2858 24.4635C44.0985 24.4635 48 20.5815 48 15.7929C48 11.0043 44.0985 7.12231 39.2858 7.12231C34.473 7.12231 30.5715 11.0043 30.5715 15.7929C30.5715 20.5815 34.473 24.4635 39.2858 24.4635Z" fill="#E8EBEC"/>
<path d="M15.8712 44.0001C19.9964 44.0001 23.3405 40.6727 23.3405 36.5682C23.3405 32.4636 19.9964 29.1362 15.8712 29.1362C11.746 29.1362 8.40186 32.4636 8.40186 36.5682C8.40186 40.6727 11.746 44.0001 15.8712 44.0001Z" fill="#E8EBEC"/>
<path d="M12.4489 24.7731C19.3242 24.7731 24.8978 19.2274 24.8978 12.3865C24.8978 5.54564 19.3242 0 12.4489 0C5.57356 0 0 5.54564 0 12.3865C0 19.2274 5.57356 24.7731 12.4489 24.7731Z" fill="#E8EBEC"/>
<path d="M42.8599 26.1642C43.8296 22.4211 43.6783 18.4776 42.4247 14.8189C41.1711 11.1602 38.8698 7.94601 35.8041 5.57176C32.7384 3.1975 29.042 1.7668 25.1697 1.45568C21.2974 1.14457 17.4181 1.96663 14.0093 3.82069V26.1642H42.8599Z" fill="white"/>
<path d="M23.569 1.39113C20.2276 1.38658 16.9392 2.2223 14.0093 3.82069V7.69569C16.7271 6.6923 19.6484 6.35777 22.5242 6.72062C25.4 7.08347 28.145 8.13294 30.525 9.77953C32.9051 11.4261 34.8496 13.621 36.1928 16.177C37.536 18.733 38.238 21.5743 38.239 24.4586C38.239 25.0338 38.2092 25.6023 38.1557 26.1642H42.8599C43.6163 23.2354 43.6898 20.1733 43.0746 17.212C42.4594 14.2507 41.1719 11.4685 39.3105 9.07808C37.4491 6.68769 35.0631 4.75238 32.3348 3.42009C29.6065 2.0878 26.6082 1.3938 23.569 1.39113Z" fill="#FC8000"/>
<path d="M42.8599 26.6287H14.0096C13.8857 26.6287 13.767 26.5798 13.6795 26.4927C13.5919 26.4056 13.5427 26.2874 13.5427 26.1643V3.82074C13.5427 3.73745 13.5653 3.6557 13.608 3.58408C13.6507 3.51245 13.712 3.45358 13.7855 3.41366C17.2744 1.51927 21.2435 0.680353 25.2051 1.00002C29.1667 1.31968 32.9481 2.78399 36.0847 5.21299C39.2212 7.64199 41.5762 10.9298 42.8602 14.6725C44.1442 18.4151 44.3013 22.4495 43.3121 26.2798C43.2863 26.3796 43.2278 26.468 43.146 26.5312C43.0641 26.5944 42.9635 26.6287 42.8599 26.6287ZM14.4764 25.6998H42.4945C43.3607 22.0799 43.16 18.2885 41.9166 14.7792C40.6733 11.2699 38.4398 8.19146 35.4837 5.91237C32.5276 3.63328 28.974 2.25009 25.2483 1.92837C21.5226 1.60664 17.7826 2.36002 14.4761 4.09832L14.4764 25.6998Z" fill="#221F63"/>
<path d="M3.65088 21.2096C3.6497 22.8808 3.86067 24.5455 4.27881 26.1642H14.0094V15.0151H4.65501C3.99113 17.0136 3.65216 19.1048 3.65088 21.2096Z" fill="white"/>
<path d="M10.8971 26.1642H14.0093V15.0151H4.65496C4.32117 16.0259 4.06913 17.0616 3.90125 18.1123H9.6522C9.81568 18.1123 9.97756 18.1444 10.1286 18.2066C10.2796 18.2689 10.4169 18.3601 10.5325 18.4751C10.6481 18.5901 10.7398 18.7267 10.8023 18.877C10.8649 19.0272 10.8971 19.1883 10.8971 19.351V26.1642Z" fill="#FC8000"/>
<path d="M14.0093 26.6287H4.27871C4.17511 26.6286 4.07447 26.5943 3.99261 26.5312C3.91074 26.468 3.85229 26.3795 3.82645 26.2797C2.85403 22.5183 2.98778 18.5581 4.2118 14.8701C4.24239 14.7772 4.30171 14.6963 4.3813 14.6389C4.46088 14.5816 4.55665 14.5507 4.65492 14.5508H14.0093C14.1331 14.5508 14.2518 14.5997 14.3394 14.6868C14.4269 14.7739 14.4761 14.8921 14.4761 15.0153V26.1642C14.4761 26.2874 14.4269 26.4055 14.3394 26.4927C14.2518 26.5798 14.1331 26.6287 14.0093 26.6287ZM4.64403 25.6997H13.5424V15.4796H4.99596C3.95947 18.7933 3.83792 22.3233 4.64403 25.6997Z" fill="#221F63"/>
<path d="M4.65491 15.015H14.0093V3.82056C9.58035 6.2405 6.23776 10.2406 4.65491 15.015Z" fill="white"/>
<path d="M14.0093 7.69556V3.82056C9.58035 6.2405 6.23776 10.2406 4.65491 15.015H5.01175C7.11622 11.6535 10.28 9.07976 14.0093 7.69556Z" fill="#FC8000"/>
<path d="M14.0093 15.4795H4.65496C4.58117 15.4794 4.50844 15.4619 4.44274 15.4285C4.37703 15.3951 4.32021 15.3467 4.27693 15.2872C4.23366 15.2277 4.20514 15.1589 4.19373 15.0863C4.18232 15.0138 4.18834 14.9396 4.21128 14.8698C5.82203 9.97853 9.24553 5.88179 13.785 3.41345C13.856 3.37477 13.936 3.35514 14.017 3.35651C14.098 3.35788 14.1772 3.3802 14.2469 3.42126C14.3166 3.46233 14.3744 3.52074 14.4145 3.59074C14.4547 3.66075 14.4758 3.73994 14.4759 3.82054V15.015C14.4759 15.1381 14.4267 15.2562 14.3392 15.3434C14.2518 15.4305 14.1331 15.4794 14.0093 15.4795ZM5.31145 14.5505H13.5425V4.62312C9.7378 6.89745 6.83242 10.4016 5.31145 14.5505Z" fill="#221F63"/>
<path d="M4.27869 26.1641C4.96183 28.7877 6.17758 31.2444 7.85105 33.3829C9.52452 35.5214 11.6203 37.2963 14.0092 38.5984V26.1641H4.27869Z" fill="white"/>
<path d="M14.0092 26.1641H4.27869C4.55426 27.2249 4.91863 28.261 5.36796 29.2613H9.65213C9.81561 29.2613 9.97749 29.2934 10.1285 29.3556C10.2796 29.4178 10.4168 29.5091 10.5324 29.6241C10.648 29.7391 10.7397 29.8757 10.8023 30.026C10.8648 30.1762 10.897 30.3373 10.897 30.5V36.4918C11.8653 37.2902 12.9073 37.9956 14.0092 38.5984V26.1641Z" fill="#FC8000"/>
<path d="M14.0093 39.063C13.9309 39.0632 13.8537 39.0434 13.7852 39.0056C11.3416 37.6711 9.19781 35.854 7.48531 33.6657C5.77281 31.4773 4.52773 28.964 3.82643 26.2797C3.80873 26.2111 3.80703 26.1393 3.82147 26.07C3.83592 26.0006 3.86612 25.9354 3.90976 25.8795C3.95341 25.8235 4.00935 25.7782 4.07329 25.747C4.13724 25.7159 4.2075 25.6997 4.2787 25.6997H14.0093C14.1331 25.6997 14.2518 25.7486 14.3394 25.8358C14.4269 25.9229 14.4761 26.041 14.4761 26.1642V38.5985C14.4761 38.7217 14.4269 38.8399 14.3394 38.927C14.2518 39.0141 14.1331 39.063 14.0093 39.063ZM4.89075 26.6287C6.26864 31.297 9.35589 35.2815 13.5427 37.7952V26.6287H4.89075Z" fill="#221F63"/>
<path d="M24.592 26.1641H14.0093V38.5984C16.9391 40.197 20.2276 41.0328 23.569 41.0279C23.9124 41.0279 24.2528 41.017 24.592 40.9995V26.1641Z" fill="white"/>
<path d="M21.4792 30.5V40.9108C22.1733 40.986 22.8708 41.0251 23.569 41.0281C23.9124 41.0281 24.2528 41.0173 24.592 40.9997V26.1641H14.0093V29.2613H20.2343C20.3978 29.2613 20.5597 29.2933 20.7107 29.3555C20.8618 29.4177 20.9991 29.509 21.1147 29.624C21.2303 29.739 21.322 29.8756 21.3845 30.0259C21.4471 30.1762 21.4792 30.3373 21.4792 30.5Z" fill="#FC8000"/>
<path d="M23.5691 41.4925C20.1498 41.4923 16.7854 40.6372 13.785 39.0056C13.7115 38.9657 13.6502 38.9068 13.6075 38.8352C13.5648 38.7636 13.5423 38.6818 13.5422 38.5985V26.1642C13.5422 26.041 13.5914 25.9229 13.679 25.8358C13.7665 25.7486 13.8853 25.6997 14.0091 25.6997H24.5921C24.7159 25.6997 24.8346 25.7486 24.9222 25.8358C25.0097 25.9229 25.0589 26.041 25.0589 26.1642V40.9995C25.0589 41.1185 25.013 41.233 24.9307 41.3193C24.8483 41.4056 24.7358 41.4572 24.6164 41.4634C24.2691 41.4816 23.9206 41.4925 23.5691 41.4925ZM14.4762 38.3209C17.4443 39.883 20.7689 40.6525 24.1252 40.5545V26.6287H14.4762V38.3209Z" fill="#221F63"/>
<path d="M37.4141 35.4552C40.0565 32.9177 41.9414 29.7019 42.8599 26.1641H24.592V35.4552H37.4141Z" fill="white"/>
<path d="M34.4332 35.4552H37.4141C40.0565 32.9177 41.9414 29.7019 42.8599 26.1641H38.1558C37.8335 29.5516 36.5416 32.7761 34.4332 35.4552Z" fill="#FC8000"/>
<path d="M37.4142 35.9198H24.5918C24.468 35.9198 24.3493 35.8709 24.2617 35.7838C24.1742 35.6967 24.125 35.5785 24.125 35.4553V26.1642C24.125 26.041 24.1742 25.9229 24.2617 25.8358C24.3493 25.7486 24.468 25.6997 24.5918 25.6997H42.86C42.9312 25.6997 43.0014 25.7159 43.0654 25.747C43.1293 25.7782 43.1852 25.8235 43.2289 25.8795C43.2725 25.9354 43.3027 26.0006 43.3172 26.07C43.3316 26.1393 43.3299 26.2111 43.3122 26.2797C42.3723 29.9007 40.4433 33.192 37.7389 35.7892C37.6519 35.8731 37.5354 35.92 37.4142 35.9198ZM25.0587 34.9908H37.2237C39.5882 32.6758 41.3178 29.7971 42.2477 26.6287H25.0589L25.0587 34.9908Z" fill="#221F63"/>
<path d="M24.592 35.4552V40.9994C29.4004 40.7593 33.9573 38.789 37.4144 35.4551L24.592 35.4552Z" fill="white"/>
<path d="M28.266 40.4704C31.71 39.6395 34.8683 37.9081 37.4142 35.4553H34.4333C32.7786 37.5632 30.6715 39.2766 28.266 40.4704Z" fill="#FC8000"/>
<path d="M24.5921 41.4639C24.5308 41.4639 24.47 41.4519 24.4134 41.4286C24.3567 41.4053 24.3052 41.371 24.2619 41.3279C24.2185 41.2848 24.1841 41.2335 24.1607 41.1772C24.1373 41.1208 24.1252 41.0604 24.1252 40.9994V35.4552C24.1252 35.332 24.1744 35.2139 24.262 35.1268C24.3495 35.0397 24.4683 34.9907 24.5921 34.9907H37.4144C37.5074 34.9907 37.5983 35.0184 37.6754 35.0701C37.7525 35.1218 37.8123 35.1952 37.8472 35.281C37.8821 35.3668 37.8904 35.461 37.8711 35.5515C37.8519 35.642 37.8059 35.7247 37.739 35.789C34.1986 39.1978 29.5362 41.2138 24.616 41.4634C24.6079 41.4639 24.6 41.4639 24.5921 41.4639ZM25.0589 35.9196V40.5046C29.1697 40.192 33.074 38.5862 36.2069 35.9196H25.0589Z" fill="#221F63"/>
<path d="M35.2186 9.97106C33.2819 8.05912 30.6627 6.98862 27.9346 6.99392C25.2064 6.99922 22.5914 8.07989 20.6623 9.99934C18.7332 11.9188 17.647 14.5206 17.6416 17.2351C17.6362 19.9496 18.7121 22.5557 20.6336 24.4827L27.9261 31.7386L35.2186 24.4827C36.1762 23.5298 36.9359 22.3987 37.4541 21.1537C37.9724 19.9087 38.2392 18.5744 38.2392 17.2269C38.2392 15.8793 37.9724 14.545 37.4541 13.3C36.9359 12.0551 36.1762 10.9239 35.2186 9.97106Z" fill="white"/>
<path d="M35.2186 9.97124C33.2844 8.04704 30.6613 6.96606 27.9261 6.96606C25.191 6.96606 22.5679 8.04704 20.6337 9.97124C20.3383 10.2691 20.0612 10.5844 19.804 10.9153C21.8727 9.30672 24.4804 8.54409 27.0949 8.78303C29.7095 9.02197 32.1339 10.2445 33.8735 12.2011C35.6132 14.1578 36.5369 16.7012 36.4564 19.3123C36.3758 21.9235 35.297 24.4057 33.44 26.2525L35.2186 24.4829C36.1763 23.53 36.9359 22.3988 37.4542 21.1539C37.9725 19.9089 38.2392 18.5746 38.2392 17.2271C38.2392 15.8795 37.9725 14.5452 37.4542 13.3002C36.9359 12.0553 36.1763 10.9241 35.2186 9.97124Z" fill="#FC8000"/>
<path d="M27.9261 32.2032C27.8648 32.2032 27.8041 32.1912 27.7475 32.1678C27.6909 32.1444 27.6395 32.1101 27.5962 32.0669L20.3036 24.8111C18.2887 22.7982 17.1586 20.0722 17.1615 17.2312C17.1644 14.3903 18.2999 11.6665 20.3189 9.65763C22.3378 7.64877 25.0753 6.51895 27.9306 6.51612C30.7859 6.51328 33.5256 7.63766 35.5486 9.64251C37.5671 11.6557 38.7007 14.3832 38.7007 17.2268C38.7007 20.0704 37.5671 22.798 35.5486 24.8111L28.2561 32.0671C28.2129 32.1103 28.1614 32.1446 28.1048 32.1679C28.0482 32.1913 27.9874 32.2033 27.9261 32.2032ZM27.9261 7.43492C25.979 7.43431 24.0755 8.00831 22.4563 9.0843C20.8372 10.1603 19.5751 11.6899 18.8298 13.4797C18.0845 15.2695 17.8895 17.239 18.2693 19.1391C18.6492 21.0393 19.5869 22.7846 20.9639 24.1543L27.9261 31.0818L34.8885 24.1543C36.2662 22.7849 37.2047 21.0395 37.585 19.1391C37.9653 17.2387 37.7704 15.2688 37.0249 13.4787C36.2795 11.6886 35.017 10.1588 33.3973 9.0829C31.7776 8.00704 29.8736 7.43352 27.9261 7.43492Z" fill="#221F63"/>
<path d="M27.9262 22.8007C31.0201 22.8007 33.5282 20.3052 33.5282 17.2268C33.5282 14.1484 31.0201 11.6528 27.9262 11.6528C24.8323 11.6528 22.3242 14.1484 22.3242 17.2268C22.3242 20.3052 24.8323 22.8007 27.9262 22.8007Z" fill="white"/>
<path d="M33.5282 17.2268C33.5292 16.0111 33.1304 14.8285 32.3926 13.8594C31.6549 12.8904 30.6187 12.1881 29.4423 11.8598C28.2659 11.5315 27.0138 11.5952 25.8772 12.0411C24.7406 12.4871 23.7818 13.2909 23.1472 14.3297C24.2184 13.6773 25.4791 13.4025 26.7264 13.5497C27.9736 13.6969 29.1348 14.2575 30.0228 15.1412C30.9109 16.0249 31.4742 17.1803 31.6221 18.4213C31.7699 19.6623 31.4937 20.9167 30.8378 21.9825C31.659 21.4864 32.3378 20.7882 32.8091 19.9553C33.2803 19.1223 33.528 18.1827 33.5282 17.2268Z" fill="#FC8000"/>
<path d="M27.9261 23.2653C26.7258 23.2653 25.5525 22.9112 24.5545 22.2477C23.5565 21.5842 22.7786 20.6411 22.3193 19.5377C21.8599 18.4343 21.7397 17.2202 21.9739 16.0489C22.2081 14.8775 22.7861 13.8016 23.6348 12.9571C24.4836 12.1126 25.5649 11.5375 26.7422 11.3045C27.9194 11.0715 29.1396 11.1911 30.2486 11.6481C31.3575 12.1052 32.3053 12.8791 32.9722 13.8721C33.639 14.8652 33.995 16.0326 33.995 17.2269C33.9931 18.8278 33.3531 20.3627 32.2154 21.4947C31.0777 22.6267 29.5351 23.2635 27.9261 23.2653ZM27.9261 12.1175C26.9105 12.1175 25.9177 12.4171 25.0732 12.9786C24.2287 13.54 23.5705 14.338 23.1819 15.2716C22.7932 16.2052 22.6915 17.2326 22.8896 18.2237C23.0878 19.2149 23.5769 20.1253 24.295 20.8398C25.0132 21.5544 25.9282 22.041 26.9243 22.2382C27.9204 22.4353 28.953 22.3341 29.8913 21.9474C30.8296 21.5607 31.6316 20.9058 32.1959 20.0656C32.7601 19.2253 33.0613 18.2375 33.0613 17.2269C33.0597 15.8723 32.5181 14.5737 31.5554 13.6158C30.5928 12.6579 29.2876 12.1191 27.9261 12.1175Z" fill="#221F63"/>
<path d="M20.6957 37.8067C21.3832 37.8067 21.9406 37.2521 21.9406 36.568C21.9406 35.8839 21.3832 35.3293 20.6957 35.3293C20.0082 35.3293 19.4508 35.8839 19.4508 36.568C19.4508 37.2521 20.0082 37.8067 20.6957 37.8067Z" fill="white"/>
<path d="M20.6957 38.2713C20.3572 38.2713 20.0262 38.1714 19.7447 37.9843C19.4633 37.7971 19.2439 37.5311 19.1143 37.2199C18.9848 36.9087 18.9509 36.5662 19.0169 36.2359C19.0829 35.9055 19.246 35.602 19.4854 35.3638C19.7247 35.1256 20.0297 34.9634 20.3618 34.8977C20.6938 34.832 21.038 34.8657 21.3508 34.9946C21.6636 35.1235 21.9309 35.3418 22.119 35.6219C22.3071 35.902 22.4075 36.2313 22.4075 36.5681C22.407 37.0197 22.2265 37.4527 21.9056 37.772C21.5847 38.0913 21.1496 38.2708 20.6957 38.2713ZM20.6957 35.794C20.5418 35.794 20.3914 35.8394 20.2635 35.9244C20.1355 36.0095 20.0358 36.1304 19.9769 36.2719C19.918 36.4133 19.9026 36.569 19.9326 36.7192C19.9626 36.8693 20.0367 37.0073 20.1456 37.1156C20.2544 37.2238 20.393 37.2976 20.5439 37.3274C20.6949 37.3573 20.8513 37.342 20.9935 37.2834C21.1357 37.2248 21.2572 37.1255 21.3427 36.9982C21.4282 36.8709 21.4738 36.7213 21.4738 36.5681C21.4736 36.3629 21.3916 36.1661 21.2457 36.0209C21.0998 35.8758 20.902 35.7942 20.6957 35.794Z" fill="#204BDB"/>
<path d="M35.6355 32.8516C36.323 32.8516 36.8804 32.297 36.8804 31.6129C36.8804 30.9288 36.323 30.3743 35.6355 30.3743C34.948 30.3743 34.3906 30.9288 34.3906 31.6129C34.3906 32.297 34.948 32.8516 35.6355 32.8516Z" fill="white"/>
<path d="M35.6356 33.316C35.297 33.316 34.9661 33.2161 34.6846 33.0289C34.4031 32.8418 34.1837 32.5758 34.0541 32.2646C33.9246 31.9534 33.8907 31.6109 33.9567 31.2806C34.0228 30.9502 34.1858 30.6467 34.4252 30.4085C34.6646 30.1703 34.9696 30.0081 35.3016 29.9424C35.6337 29.8767 35.9778 29.9104 36.2906 30.0393C36.6034 30.1682 36.8707 30.3865 37.0588 30.6666C37.2469 30.9467 37.3473 31.276 37.3473 31.6128C37.3468 32.0644 37.1663 32.4973 36.8454 32.8166C36.5245 33.1359 36.0894 33.3155 35.6356 33.316ZM35.6356 30.8387C35.4817 30.8387 35.3312 30.8841 35.2033 30.9691C35.0753 31.0542 34.9756 31.1751 34.9167 31.3166C34.8578 31.458 34.8424 31.6137 34.8724 31.7638C34.9025 31.914 34.9766 32.052 35.0854 32.1602C35.1942 32.2685 35.3328 32.3422 35.4838 32.3721C35.6347 32.402 35.7911 32.3866 35.9333 32.328C36.0755 32.2695 36.197 32.1702 36.2825 32.0429C36.368 31.9156 36.4136 31.7659 36.4136 31.6128C36.4134 31.4076 36.3314 31.2108 36.1855 31.0656C36.0396 30.9205 35.8418 30.8389 35.6356 30.8387Z" fill="#204BDB"/>
<path d="M17.5829 31.6128C18.2704 31.6128 18.8278 31.0582 18.8278 30.3742C18.8278 29.6901 18.2704 29.1355 17.5829 29.1355C16.8954 29.1355 16.338 29.6901 16.338 30.3742C16.338 31.0582 16.8954 31.6128 17.5829 31.6128Z" fill="white"/>
<path d="M17.5828 32.0774C17.2443 32.0774 16.9133 31.9776 16.6318 31.7904C16.3503 31.6033 16.1309 31.3373 16.0014 31.0261C15.8718 30.7148 15.8379 30.3724 15.904 30.042C15.97 29.7116 16.1331 29.4082 16.3724 29.17C16.6118 28.9318 16.9168 28.7696 17.2489 28.7039C17.5809 28.6382 17.9251 28.6719 18.2379 28.8008C18.5506 28.9297 18.818 29.148 19.0061 29.4281C19.1941 29.7082 19.2945 30.0374 19.2945 30.3743C19.2941 30.8259 19.1136 31.2588 18.7927 31.5781C18.4718 31.8974 18.0367 32.077 17.5828 32.0774ZM17.5828 29.6001C17.4289 29.6001 17.2785 29.6455 17.1506 29.7306C17.0226 29.8157 16.9229 29.9366 16.864 30.078C16.8051 30.2195 16.7897 30.3752 16.8197 30.5253C16.8497 30.6755 16.9238 30.8134 17.0326 30.9217C17.1415 31.03 17.2801 31.1037 17.431 31.1336C17.582 31.1634 17.7384 31.1481 17.8806 31.0895C18.0227 31.0309 18.1443 30.9317 18.2297 30.8044C18.3152 30.6771 18.3609 30.5274 18.3609 30.3743C18.3607 30.169 18.2787 29.9722 18.1328 29.8271C17.9869 29.6819 17.7891 29.6003 17.5828 29.6001Z" fill="#204BDB"/>
<path d="M8.24562 23.5603C8.93315 23.5603 9.49051 23.0058 9.49051 22.3217C9.49051 21.6376 8.93315 21.083 8.24562 21.083C7.55809 21.083 7.00073 21.6376 7.00073 22.3217C7.00073 23.0058 7.55809 23.5603 8.24562 23.5603Z" fill="white"/>
<path d="M8.24554 24.0249C7.90699 24.0249 7.57605 23.9251 7.29456 23.7379C7.01306 23.5508 6.79367 23.2848 6.66411 22.9736C6.53456 22.6624 6.50066 22.3199 6.5667 21.9895C6.63275 21.6592 6.79578 21.3557 7.03517 21.1175C7.27455 20.8793 7.57955 20.7171 7.9116 20.6514C8.24364 20.5857 8.58781 20.6194 8.90058 20.7483C9.21336 20.8772 9.4807 21.0955 9.66878 21.3756C9.85687 21.6557 9.95726 21.985 9.95726 22.3218C9.9568 22.7734 9.77631 23.2063 9.4554 23.5256C9.13449 23.8449 8.69937 24.0245 8.24554 24.0249ZM8.24554 21.5476C8.09165 21.5476 7.94122 21.593 7.81327 21.6781C7.68532 21.7632 7.5856 21.8841 7.52671 22.0255C7.46782 22.167 7.45241 22.3227 7.48243 22.4728C7.51245 22.623 7.58656 22.7609 7.69537 22.8692C7.80418 22.9775 7.94282 23.0512 8.09375 23.0811C8.24467 23.111 8.40111 23.0956 8.54329 23.037C8.68546 22.9784 8.80697 22.8792 8.89247 22.7519C8.97796 22.6246 9.02359 22.4749 9.02359 22.3218C9.02339 22.1165 8.94136 21.9197 8.79549 21.7746C8.64962 21.6295 8.45183 21.5478 8.24554 21.5476Z" fill="#204BDB"/>
<path d="M10.1129 12.4114C10.8005 12.4114 11.3578 11.8568 11.3578 11.1727C11.3578 10.4886 10.8005 9.93408 10.1129 9.93408C9.4254 9.93408 8.86804 10.4886 8.86804 11.1727C8.86804 11.8568 9.4254 12.4114 10.1129 12.4114Z" fill="white"/>
<path d="M10.113 12.8758C9.77442 12.8758 9.44348 12.7759 9.16199 12.5887C8.8805 12.4016 8.6611 12.1356 8.53154 11.8244C8.40199 11.5132 8.36809 11.1707 8.43414 10.8404C8.50018 10.51 8.66321 10.2065 8.9026 9.96832C9.14199 9.73013 9.44699 9.56792 9.77903 9.50221C10.1111 9.43649 10.4552 9.47022 10.768 9.59913C11.0808 9.72804 11.3481 9.94633 11.5362 10.2264C11.7243 10.5065 11.8247 10.8358 11.8247 11.1726C11.8242 11.6242 11.6437 12.0571 11.3228 12.3764C11.0019 12.6957 10.5668 12.8753 10.113 12.8758ZM10.113 10.3985C9.95908 10.3985 9.80865 10.4439 9.6807 10.5289C9.55275 10.614 9.45303 10.7349 9.39414 10.8764C9.33525 11.0178 9.31984 11.1735 9.34986 11.3237C9.37988 11.4738 9.45399 11.6118 9.5628 11.72C9.67161 11.8283 9.81025 11.902 9.96118 11.9319C10.1121 11.9618 10.2685 11.9465 10.4107 11.8879C10.5529 11.8293 10.6744 11.73 10.7599 11.6027C10.8454 11.4754 10.891 11.3257 10.891 11.1726C10.8908 10.9674 10.8088 10.7706 10.6629 10.6254C10.5171 10.4803 10.3193 10.3987 10.113 10.3985Z" fill="#204BDB"/>
<path d="M18.8284 7.4568C19.5159 7.4568 20.0733 6.90223 20.0733 6.21815C20.0733 5.53406 19.5159 4.97949 18.8284 4.97949C18.1409 4.97949 17.5835 5.53406 17.5835 6.21815C17.5835 6.90223 18.1409 7.4568 18.8284 7.4568Z" fill="white"/>
<path d="M18.8278 7.92119C18.4893 7.92119 18.1583 7.8213 17.8768 7.63416C17.5953 7.44701 17.3759 7.18102 17.2464 6.86981C17.1168 6.5586 17.0829 6.21615 17.149 5.88577C17.215 5.5554 17.3781 5.25192 17.6174 5.01373C17.8568 4.77554 18.1618 4.61334 18.4939 4.54762C18.8259 4.4819 19.1701 4.51563 19.4829 4.64454C19.7956 4.77345 20.063 4.99174 20.2511 5.27182C20.4391 5.5519 20.5395 5.88119 20.5395 6.21804C20.5391 6.6696 20.3586 7.10254 20.0377 7.42184C19.7168 7.74114 19.2816 7.92073 18.8278 7.92119ZM18.8278 5.44388C18.6739 5.44388 18.5235 5.48929 18.3955 5.57435C18.2676 5.65942 18.1679 5.78032 18.109 5.92178C18.0501 6.06324 18.0347 6.2189 18.0647 6.36907C18.0947 6.51924 18.1688 6.65719 18.2776 6.76545C18.3865 6.87372 18.5251 6.94745 18.676 6.97732C18.8269 7.0072 18.9834 6.99186 19.1256 6.93327C19.2677 6.87468 19.3892 6.77545 19.4747 6.64814C19.5602 6.52083 19.6059 6.37116 19.6059 6.21804C19.6057 6.01278 19.5237 5.81597 19.3778 5.67083C19.2319 5.52568 19.0341 5.44406 18.8278 5.44388Z" fill="#204BDB"/>
</svg>
