<svg width="24" height="25" viewBox="0 0 24 25" fill="none" xmlns="http://www.w3.org/2000/svg">
<path d="M10.9718 3.20846C11.4382 2.43348 12.5618 2.43348 13.0282 3.20847L15.3586 7.08087C15.5262 7.35928 15.7995 7.55784 16.116 7.63116L20.5191 8.65091C21.4002 8.85499 21.7474 9.92356 21.1545 10.6066L18.1918 14.0196C17.9788 14.265 17.8744 14.5863 17.9025 14.91L18.2932 19.4127C18.3714 20.3138 17.4625 20.9742 16.6296 20.6214L12.4681 18.8583C12.1689 18.7316 11.8311 18.7316 11.5319 18.8583L7.37038 20.6214C6.53754 20.9742 5.62856 20.3138 5.70677 19.4127L6.09754 14.91C6.12563 14.5863 6.02124 14.265 5.80823 14.0196L2.8455 10.6066C2.25257 9.92356 2.59977 8.85499 3.48095 8.65091L7.88397 7.63116C8.20053 7.55784 8.47383 7.35928 8.64138 7.08087L10.9718 3.20846Z" stroke="#221F63" stroke-width="2"/>
</svg>
