<svg width="20" height="14" viewBox="0 0 20 14" fill="none" xmlns="http://www.w3.org/2000/svg">
<g clip-path="url(#clip0_701_840)">
<path d="M9.9998 0.5C6.1998 0.5 2.6998 2.8 0.199805 6.5C-0.00019531 6.8 -0.00019531 7.2 0.199805 7.5C2.7998 11.2 6.1998 13.5 9.9998 13.5C13.7998 13.5 17.2998 11.2 19.7998 7.5C19.9998 7.2 19.9998 6.8 19.7998 6.5C17.2998 2.8 13.7998 0.5 9.9998 0.5ZM10.2998 11.6C7.6998 11.8 5.5998 9.5 5.7998 6.7C5.8998 4.4 7.5998 2.6 9.6998 2.4C12.1998 2.2 14.2998 4.5 14.1998 7.3C14.0998 9.6 12.3998 11.4 10.2998 11.6ZM10.0998 9.5C8.7998 9.6 7.6998 8.3 7.6998 6.8C7.7998 5.6 8.6998 4.6 9.7998 4.5C11.1998 4.4 12.2998 5.6 12.1998 7.1C12.1998 8.4 11.2998 9.4 10.0998 9.5Z" fill="#00A5FF"/>
</g>
<defs>
<clipPath id="clip0_701_840">
<rect width="20" height="13" fill="white" transform="translate(0 0.5)"/>
</clipPath>
</defs>
</svg>
