<svg width="74" height="47" viewBox="0 0 74 47" fill="none" xmlns="http://www.w3.org/2000/svg">
<path d="M0 23.5H18.3712L33.6056 4.19307C33.9069 3.8112 34.0945 3.3523 34.147 2.86889C34.1994 2.38547 34.1146 1.89706 33.9022 1.45956C33.6898 1.02206 33.3584 0.653138 32.9459 0.395016C32.5335 0.136894 32.0566 8.24889e-08 31.5699 0L23.2865 0C21.7818 6.54843e-06 20.2968 0.341714 18.9437 0.999299C17.5905 1.65688 16.4048 2.61314 15.4759 3.79581L0 23.5Z" fill="#FFB000"/>
<path d="M74 46.4854L59.0377 28.1087C57.8654 26.6688 56.3866 25.5081 54.7089 24.7109C53.0312 23.9136 51.1968 23.5 49.3389 23.5H36.9142L43.6078 31.8749C47.251 36.4332 51.8748 40.1135 57.1362 42.6428C62.3975 45.1721 68.1613 46.4854 74 46.4854Z" fill="#FC8000"/>
<path d="M40.459 4.53454L52.3917 19.7984C52.6562 20.1368 52.8202 20.5425 52.8651 20.9695C52.9099 21.3965 52.8338 21.8275 52.6454 22.2133C52.457 22.5992 52.1639 22.9244 51.7995 23.1519C51.4351 23.3794 51.014 23.5 50.5843 23.5H36.9142L22.3141 4.91093C21.9622 4.46286 21.7435 3.92494 21.683 3.35861C21.6225 2.79228 21.7227 2.22037 21.9721 1.7082C22.2214 1.19604 22.61 0.764271 23.0933 0.462213C23.5766 0.160154 24.1352 -1.45355e-05 24.7052 9.89374e-10L31.1551 9.89375e-10C32.9488 6.88213e-07 34.719 0.408366 36.3311 1.19408C37.9432 1.9798 39.3549 3.1222 40.459 4.53454Z" fill="#204BDB"/>
<path d="M0 23.5H18.3712L33.7945 43.0464C34.0786 43.4065 34.2555 43.8391 34.305 44.2949C34.3544 44.7507 34.2744 45.2113 34.0742 45.6238C33.8739 46.0363 33.5614 46.3841 33.1725 46.6275C32.7836 46.8709 32.334 47 31.8751 47H23.2865C21.7818 47 20.2968 46.6583 18.9437 46.0007C17.5905 45.3431 16.4048 44.3868 15.4759 43.2042L0 23.5Z" fill="#DB0BC0"/>
<path d="M74 0.514648L59.0377 18.8914C57.8654 20.3312 56.3866 21.492 54.7089 22.2892C53.0312 23.0864 51.1968 23.5 49.3389 23.5H36.9142L43.6078 15.1252C47.251 10.5669 51.8748 6.88659 57.1361 4.3573C62.3974 1.82801 68.1613 0.514647 74 0.514648Z" fill="#00D2D0"/>
<path d="M39.6528 43.4967L52.334 27.2754C52.6037 26.9303 52.771 26.5164 52.8168 26.0809C52.8626 25.6454 52.7849 25.2058 52.5928 24.8123C52.4006 24.4188 52.1016 24.0871 51.7299 23.8551C51.3582 23.623 50.9288 23.5 50.4905 23.5H36.9142L22.3141 42.089C21.9622 42.5371 21.7435 43.075 21.683 43.6413C21.6225 44.2076 21.7227 44.7795 21.972 45.2917C22.2214 45.8038 22.6099 46.2356 23.0932 46.5377C23.5765 46.8397 24.1351 46.9999 24.7052 46.9999H32.4649C33.8506 46.9999 35.2182 46.6844 36.4637 46.0774C37.7091 45.4704 38.7998 44.5878 39.6528 43.4967Z" fill="#00A5FF"/>
</svg>
