<svg width="38" height="38" viewBox="0 0 38 38" fill="none" xmlns="http://www.w3.org/2000/svg">
<path d="M17.9725 3.29196C18.4389 2.51698 19.5624 2.51698 20.0288 3.29196L24.4714 10.674C24.6389 10.9524 24.9122 11.1509 25.2288 11.2243L33.6223 13.1682C34.5035 13.3723 34.8507 14.4409 34.2578 15.1239L28.6099 21.6302C28.3969 21.8756 28.2925 22.1969 28.3206 22.5206L29.0655 31.104C29.1437 32.0051 28.2347 32.6655 27.4019 32.3127L19.4688 28.9518C19.1696 28.8251 18.8317 28.8251 18.5325 28.9518L10.5994 32.3127C9.76656 32.6655 8.85759 32.0051 8.93579 31.104L9.68072 22.5206C9.70882 22.1969 9.60443 21.8756 9.39142 21.6302L3.74354 15.1239C3.15061 14.4409 3.49781 13.3723 4.37899 13.1682L12.7725 11.2243C13.0891 11.1509 13.3624 10.9524 13.5299 10.674L17.9725 3.29196Z" stroke="#221F63" stroke-width="2"/>
</svg>
