<svg width="20" height="13" viewBox="0 0 20 13" fill="none" xmlns="http://www.w3.org/2000/svg">
<path d="M9.9998 0C6.1998 0 2.6998 2.3 0.199805 6C-0.00019531 6.3 -0.00019531 6.7 0.199805 7C2.7998 10.7 6.1998 13 9.9998 13C13.7998 13 17.2998 10.7 19.7998 7C19.9998 6.7 19.9998 6.3 19.7998 6C17.2998 2.3 13.7998 0 9.9998 0ZM10.2998 11.1C7.6998 11.3 5.5998 9 5.7998 6.2C5.8998 3.9 7.5998 2.1 9.6998 1.9C12.1998 1.7 14.2998 4 14.1998 6.8C14.0998 9.1 12.3998 10.9 10.2998 11.1ZM10.0998 9C8.7998 9.1 7.6998 7.8 7.6998 6.3C7.7998 5.1 8.6998 4.1 9.7998 4C11.1998 3.9 12.2998 5.1 12.1998 6.6C12.1998 7.9 11.2998 8.9 10.0998 9Z" fill="#FC8000"/>
</svg>
