<svg width="25" height="24" viewBox="0 0 25 24" fill="none" xmlns="http://www.w3.org/2000/svg">
<path fill-rule="evenodd" clip-rule="evenodd" d="M11.3333 1C10.9381 1 10.58 1.23273 10.4195 1.59386L6.68344 10H4.33331C3.53766 10 2.7746 10.3161 2.21199 10.8787C1.64938 11.4413 1.33331 12.2044 1.33331 13V20C1.33331 20.7957 1.64938 21.5587 2.21199 22.1213C2.7746 22.6839 3.53766 23 4.33331 23H18.6081C19.3295 23.0067 20.0291 22.7532 20.5789 22.2859C21.13 21.8175 21.4933 21.1658 21.6019 20.4507L22.982 11.4501C23.0473 11.0201 23.0183 10.5811 22.897 10.1634C22.7757 9.7458 22.5651 9.3595 22.2798 9.03134C21.9944 8.70317 21.6411 8.44096 21.2443 8.26289C20.8495 8.08567 20.421 7.996 19.9882 8H15.3333V5C15.3333 3.93913 14.9119 2.92172 14.1617 2.17157C13.4116 1.42143 12.3942 1 11.3333 1ZM11.9411 3.0946L8.33331 11.2122V21H18.6246C18.8658 21.0027 19.0998 20.9183 19.2836 20.7621C19.4673 20.6059 19.5885 20.3885 19.6246 20.1501L21.0046 11.1499C21.0263 11.0067 21.0167 10.8601 20.9763 10.7211C20.9359 10.5818 20.8657 10.4531 20.7706 10.3437C20.6754 10.2343 20.5577 10.1469 20.4254 10.0875C20.2932 10.0282 20.1496 9.99829 20.0046 9.99994L19.9933 10.0001L14.3333 10C13.781 10 13.3333 9.55228 13.3333 9V5C13.3333 4.46957 13.1226 3.96086 12.7475 3.58579C12.5197 3.35794 12.2425 3.19075 11.9411 3.0946ZM6.33331 12V21H4.33331C4.0681 21 3.81374 20.8946 3.62621 20.7071C3.43867 20.5196 3.33331 20.2652 3.33331 20V13C3.33331 12.7348 3.43867 12.4804 3.62621 12.2929C3.81374 12.1054 4.0681 12 4.33331 12H6.33331Z" fill="#221F63"/>
</svg>
